<svg width="32" height="32" viewBox="0 0 32 32" fill="none" xmlns="http://www.w3.org/2000/svg">
  <!-- Explosion background -->
  <path d="M16 2L18 8L24 6L20 12L28 14L22 18L30 22L24 24L26 30L18 26L16 32L14 26L6 30L8 24L2 22L10 18L4 14L12 12L8 6L14 8L16 2Z" fill="#FF6B35"/>
  
  <!-- Bomb -->
  <circle cx="16" cy="18" r="8" fill="#2D3748"/>
  <circle cx="16" cy="18" r="6" fill="#1A202C"/>
  
  <!-- Fuse -->
  <rect x="15" y="8" width="2" height="6" fill="#8B4513"/>
  <circle cx="16" cy="6" r="2" fill="#FFD700"/>
  
  <!-- Highlight on bomb -->
  <ellipse cx="13" cy="15" rx="2" ry="3" fill="#4A5568" opacity="0.7"/>
</svg>